<?xml version="1.0" encoding="utf-8" ?><svg xmlns="http://www.w3.org/2000/svg" xmlns:xlink="http://www.w3.org/1999/xlink" width="1045" height="973" viewBox="0 0 1045 973"><path fill="#131212" d="M691.823 317.584C713.466 315.636 743.532 321.755 763.84 328.866C815.954 346.671 858.705 384.707 882.451 434.394C909.124 490.178 909.976 555.644 892.004 614.134C889.5 622.282 886.734 630.194 883.901 638.231C917.083 639.246 913.751 654.649 913.495 680.881C913.38 692.826 913.402 704.772 913.56 716.717C928.688 716.233 969.925 712.458 980.977 722.025C985.465 725.91 987.163 730.582 987.463 736.392C988.324 753.016 987.731 769.859 987.755 786.509C987.773 798.242 989.255 810.693 987.052 822.268C986.388 825.619 984.805 828.718 982.48 831.22C974.216 839.945 956.471 838.835 945.344 838.842C934.737 838.849 924.128 838.356 913.474 838.462C913.536 839.493 913.582 840.524 913.612 841.556C914.074 858.633 915.348 881.219 912.345 897.908C911.638 900.876 910.145 903.83 907.879 905.928C895.818 917.099 868.888 912.79 853.128 913.754C837.493 913.4 820.288 914.727 805.015 911.613C798.787 910.344 792.658 902.363 791.691 896.523C788.693 878.428 790.25 856.501 790.838 838.336C781.173 838.221 771.508 838.247 761.844 838.413C745.731 838.54 733.975 840.234 721.659 828.551C691.495 855.327 559.914 945.327 526.202 953.714C506.61 958.587 483.186 941.796 467.157 932.127C438.984 916.165 406.518 895.291 379.842 876.818C311.15 829.253 240.62 772.759 190.296 705.666C147.068 648.034 124.885 572.107 135.689 500.339C143.744 443.046 174.362 391.348 220.734 356.747C314.546 287.528 443.766 315.131 513.586 404.332C515.936 407.334 518.195 410.405 520.455 413.475C525.485 406.263 530.938 399.355 536.787 392.788C576.301 347.96 632.155 320.867 691.823 317.584Z"/><path fill="#DA3230" d="M694.246 342.065C720.103 340.432 747.907 347.368 771.242 358.303C816.151 379.345 850.848 417.381 867.685 464.027C883.544 507.891 883.411 561.002 869.829 605.426C866.024 617.868 862.073 627.061 856.583 638.727C840.884 637.901 808.165 634.846 795.847 646.054C788.51 652.729 790.444 671.264 790.564 681.048L790.82 716.499L763.848 715.925C752.542 715.736 733.034 714.921 724.545 723.444C716.828 731.192 718.881 747.99 718.931 758.42L719.082 798.617C707.166 809.605 690.959 822.147 677.834 831.979C645.505 855.961 611.979 878.285 577.385 898.866C557.93 910.531 539.234 922.617 517.759 930.018C503.082 925.171 489.975 916.934 476.59 909.264C431.347 883.34 389.206 852.787 347.153 822.062C327.146 807.47 307.235 790.426 288.719 774C220.359 712.93 165.164 647.947 158.627 552.637C151.459 448.119 222.716 349.695 330.685 342.321C393.593 338.024 464.251 375.205 499.048 427.056C502.316 431.926 511.106 450.464 519.585 449.758C531.949 446.383 545.308 420.324 553.478 410.957C589.86 369.243 639.746 346.084 694.246 342.065Z"/><path fill="#131212" d="M513.291 518.095C558.822 514.358 598.764 548.234 602.505 593.763C606.246 639.291 572.371 679.233 526.84 682.977C481.304 686.722 441.356 652.844 437.614 607.311C433.872 561.778 467.755 521.834 513.291 518.095Z"/><path fill="#DA3230" d="M514.352 535.972C550.089 533.068 581.378 559.767 584.13 595.515C586.882 631.262 560.049 662.435 524.288 665.035C488.742 667.619 457.795 640.983 455.06 605.45C452.324 569.918 478.829 538.859 514.352 535.972Z"/><path fill="#FCFBFA" d="M491.795 555.678C513.504 554.225 506.287 583.792 487.374 590.916C474.699 591.245 470.732 583.629 475.057 572.304C478.253 563.936 483.788 559.162 491.795 555.678Z"/><path fill="#131212" d="M376.405 674.133C391.957 674.28 391.019 687.039 396.499 698.235C398.885 703.109 402.352 708.392 405.552 712.771C421.398 734.025 443.138 750.156 468.073 759.162C532.057 782.981 612.25 761.79 646.056 699.626C650.656 691.167 651.879 678.668 661.57 674.344C667.204 671.829 672.797 675.588 674.848 680.983C677.456 687.842 674.512 694.401 671.802 700.67C671.602 701.149 671.397 701.625 671.186 702.099C655.155 738.454 621.846 765.744 585.253 779.816C541.543 796.76 492.881 795.572 450.049 776.518C421.418 764.055 397.153 743.338 380.357 717.014C373.379 706.166 357.239 681.327 376.405 674.133Z"/><path fill="#131212" d="M395.889 496.144C419.755 495.883 431.135 508.891 438.391 530.98C441.276 539.766 445.22 557.117 433.292 560.917C427.175 562.866 422.655 553.571 420.741 549.138C415.789 536.953 408.535 520.432 391.99 525.372C374.339 531.898 374.952 548.325 368.746 563.196L368.453 563.886C357.846 571.733 350.84 564.244 350.398 552.994C349.812 538.069 356.093 521.3 365.815 510.03C373.583 501.025 384.223 496.855 395.889 496.144Z"/><path fill="#131212" d="M636.449 496.527C647.511 495.465 658.559 497.415 667.542 504.246C680.634 514.201 687.401 529.349 689.514 545.361C690.277 551.148 691.041 558.655 687.149 563.437C685.741 565.167 682.595 567.556 680.385 567.445C669.692 566.905 667.156 547.64 663.341 540.09C660.492 534.452 659.694 533.317 655.402 529.208C631.551 512.62 624.938 539.448 616.434 555.134C614.72 558.297 610.2 563.619 606.136 560.586C592.735 550.585 600.321 530.199 607.223 518.606C614.334 506.679 623.07 499.845 636.449 496.527Z"/><path fill="#00CF1B" d="M811.946 660.264L891.804 660.288C891.97 682.158 891.571 703.864 891.472 725.676C891.402 741.077 916.227 737.098 926.183 736.978C939.176 736.881 952.168 736.85 965.161 736.884L965.074 816.574L926.362 816.375C918.522 816.278 910.628 815.834 902.814 816.573C890.9 817.699 891.067 829.095 891.301 838.346C891.738 855.622 892.475 873.501 891.687 890.784C883.176 891.924 868.529 891.817 859.545 891.835C843.737 891.873 827.93 891.776 812.124 891.546C811.054 870.561 812.272 844.999 811.82 823.017C811.284 822.445 810.732 821.887 810.167 821.344C807.245 818.574 802.284 816.836 798.294 816.553C779.308 815.21 759.26 816.164 740.273 816.606C739.115 792.441 740.079 761.527 740.095 736.829C751.216 736.787 762.337 736.844 773.457 737.001C783.054 737.201 801.126 739.469 808.678 732.869C813.244 728.878 812.708 719.327 812.489 713.529C811.818 695.81 811.949 678.025 811.946 660.264Z"/><path fill="#131212" d="M508.443 30.8291C554.183 26.5808 608.3 41.9127 641.431 74.7227C679.016 111.944 683.914 152.209 684.676 202.2C694.652 207.967 699.474 213.08 705.58 222.73C715.195 201.89 733.524 199.82 753.471 206.837C766.165 177.424 785.838 152.629 816.683 140.545C891.371 111.284 995.886 157.927 1025.58 231.979C1041.55 271.791 1030.15 312.892 1013.88 350.292C1025.85 361.366 1033.09 372.767 1028.9 389.61C1021.72 418.45 986.433 415.605 964.122 409.398C912.896 395.146 867.141 366.172 821.26 340.185C790.101 322.533 757.395 306.637 730.049 283.168C717.787 272.647 712.375 264.594 704.493 251.115C702.512 254.91 700.146 258.631 697.08 261.646C674.086 284.259 568.781 285.262 534.491 285.227C485.766 285.308 432.618 284.197 384.558 276.725C364.418 273.595 349.89 269.165 338.035 252.304C328.233 269.789 316.682 281.768 300.738 293.67C275.722 312.345 247.702 326.719 220.615 342.07C177.085 366.74 90.3366 420.895 41.034 413.522C32.4109 412.233 23.7721 408.881 18.4623 401.63C13.2912 394.569 12.0791 384.626 13.5287 376.164C15.2514 366.11 22.2999 357.298 30.4475 351.488C14.3128 315.459 3.51877 276.468 16.2522 237.463C28.7743 199.105 61.1976 170.282 96.3923 152.609C132.657 134.398 177.016 123.987 216.611 137.095C252.316 148.915 273.074 173.874 289.142 206.108C313.965 199.786 323.995 200.677 337.213 223.598C341.934 214.795 345.439 211.655 352.626 204.897C352.352 159.145 355.278 121.466 386.814 85.1338C418.511 48.6172 461.559 34.3808 508.443 30.8291Z"/><path fill="#DA3230" d="M504.398 56.8463C506.068 56.7678 507.74 56.7147 509.411 56.6871C551.649 55.9791 591.588 61.5577 623.591 92.4826C652.587 120.502 657.097 156.068 657.445 193.959C613.639 185.11 574.762 180.569 530.026 180.609C476.284 180.602 431.494 182.782 379.16 195.891C378.805 160.505 383.939 127.815 407.913 99.7711C430.994 72.7706 469.557 59.2529 504.398 56.8463Z"/><path fill="#00CF1B" d="M862.721 155.829C888.161 154.193 916.99 164.392 939.331 175.961C1005.73 210.343 1027.29 269.786 991.513 337.076C977.565 327.98 963.325 319.34 948.815 311.17C940.865 307.044 932.299 301.366 924.292 296.88L855.622 258.812C842.065 251.384 828.424 243.868 814.723 236.72C802.264 230.22 789.296 224.395 777.139 217.332C780.397 206.783 785.766 197.006 792.918 188.595C810.12 168.172 836.629 158.019 862.721 155.829Z"/><path fill="#FEDF15" d="M170.602 155.32C214.715 153.385 249.728 175.745 265.941 216.913C247.793 224.523 233.874 233.895 216.719 243.179C178.193 263.938 140.001 285.31 102.157 307.289C85.202 317.105 69.4997 327.626 52.1477 337.389C45.3832 318.49 36.9981 304.287 35.412 283.359C33.2906 256.848 42.0494 230.616 59.673 210.697C84.9079 181.669 132.307 157.916 170.602 155.32Z"/><path fill="#DA3230" d="M511.14 203.799C511.284 203.784 511.427 203.765 511.571 203.753C525.452 202.59 540.156 204.284 554.056 205.061C582.472 206.649 655.569 209.303 677.123 227.735C679.688 229.928 682.449 233.11 682.583 236.672C682.66 238.716 681.708 240.517 680.335 241.977C663.565 259.813 560.274 260.17 533.462 261.164C500.036 261.596 388.087 260.943 364.674 243.679C362.538 242.104 360.388 239.878 360.123 237.104C359.874 234.487 361.341 232.178 363.019 230.311C381.506 209.727 480.732 206.045 511.14 203.799Z"/><path fill="#FEDF15" d="M301.47 227.625C305.028 227.348 308.986 227.026 312.086 229.162C314.103 230.551 314.963 232.655 315.278 235.02C316.237 242.216 311.688 249.315 307.34 254.653C287.641 278.83 229.595 309.297 200.495 325.554C167.387 344.051 134.676 363.237 99.3543 377.292C84.1268 383.351 67.6538 388.335 51.2929 389.935C48.0561 389.98 44.7339 390.2 41.6592 389.008C39.8771 388.317 37.9031 387.108 37.1553 385.254C36.5133 383.663 36.7029 382.077 37.385 380.538C47.5134 357.699 265.131 242.748 301.47 227.625Z"/><path fill="#00CF1B" d="M731.265 227.501C747.601 227.535 771.613 241.515 786.456 249.135C806.186 259.263 825.804 269.607 845.307 280.167C864.469 290.439 884.009 300.373 902.952 311.001C921.212 321.455 939.303 332.205 957.216 343.244C971.499 351.893 986.444 360.284 999.427 370.791C1006.06 376.161 1008.65 381.668 1002.05 388.31C964.057 388.761 934.181 373.415 901.404 356.431C877.553 344.035 853.965 331.141 830.655 317.756C804.316 302.8 776.338 288.556 752.428 269.921C743.11 262.659 728.899 250.736 727.409 238.24C726.866 233.68 728.554 230.807 731.265 227.501Z"/></svg>